HIERARCHY
ROOT Hips
{
	OFFSET 0.000000 0.000000 0.000000
	CHANNELS 6 Xposition Yposition Zposition Zrotation Yrotation Xrotation 
	JOINT LHipJoint
	{
		OFFSET 0.000000 0.000000 0.000000
		CHANNELS 3 Zrotation Yrotation Xrotation
		JOINT LeftUpLeg
		{
			OFFSET 1.363060 -1.794630 0.839290
			CHANNELS 3 Zrotation Yrotation Xrotation
			JOINT LeftLeg
			{
				OFFSET 2.448110 -6.726130 0.000000
				CHANNELS 3 Zrotation Yrotation Xrotation
				JOINT LeftFoot
				{
					OFFSET 2.562200 -7.039590 0.000000
					CHANNELS 3 Zrotation Yrotation Xrotation
					JOINT LeftToeBase
					{
						OFFSET 0.157640 -0.433110 2.322550
						CHANNELS 3 Zrotation Yrotation Xrotation
						End Site
						{
							OFFSET 0.000000 0.000000 0.000000
						}
					}
				}
			}
		}
	}
	JOINT RHipJoint
	{
		OFFSET 0.000000 0.000000 0.000000
		CHANNELS 3 Zrotation Yrotation Xrotation
		JOINT RightUpLeg
		{
			OFFSET -1.305520 -1.794630 0.839290
			CHANNELS 3 Zrotation Yrotation Xrotation
			JOINT RightLeg
			{
				OFFSET -2.542530 -6.985550 0.000000
				CHANNELS 3 Zrotation Yrotation Xrotation
				JOINT RightFoot
				{
					OFFSET -2.568260 -7.056230 0.000000
					CHANNELS 3 Zrotation Yrotation Xrotation
					JOINT RightToeBase
					{
						OFFSET -0.164730 -0.452590 2.363150
						CHANNELS 3 Zrotation Yrotation Xrotation
						End Site
						{
							OFFSET 0.000000 0.000000 0.000000
						}
					}
				}
			}
		}
	}
}
MOTION
Frames: 30
Frame Time: 0.008333
2.802377 16.880643 0.237350 -171.276346 -35.468195 -156.298265 -12.177124 0.851618 -5.655183 -2.059004 44.391686 -22.188039 -3.811127 -0.033485 -0.130545 2.896570 22.806078 13.008714 7.920500 -0.000000 -61.340900 7.827129 0.565574 8.716563 -7.377932 24.591063 -47.818118 2.877965 0.834582 5.697412 2.468237 14.476790 14.453611 4.647600 0.000001 -78.837701
2.800275 16.876418 0.215545 -171.265693 -35.289743 -156.248339 -12.190101 0.856877 -5.626452 -1.959619 44.360102 -22.073277 -3.797355 -0.041573 -0.127280 2.905370 22.924226 13.098322 8.000400 0.000000 -61.326100 7.803079 0.539505 8.786988 -7.394528 24.757403 -48.015865 2.866700 0.818328 5.898587 2.474415 14.528484 14.310147 4.641000 0.000000 -78.856100
2.798658 16.874373 0.194958 -171.266143 -35.156809 -156.226387 -12.206275 0.858591 -5.589822 -1.824645 44.263190 -21.937574 -3.771994 -0.046493 -0.079030 2.922805 23.100281 13.201608 8.110200 0.000000 -61.304700 7.781478 0.515200 8.838139 -7.389977 24.897210 -48.130773 2.857077 0.804368 6.066207 2.476735 14.550858 14.184182 4.625800 0.000000 -78.863600
2.797319 16.874440 0.175556 -171.280360 -35.070605 -156.228722 -12.225687 0.858167 -5.545403 -1.662903 44.106899 -21.786911 -3.736216 -0.048421 0.007670 2.948041 23.327518 13.319646 8.248100 0.000001 -61.295200 7.762465 0.492918 8.870799 -7.367337 25.008855 -48.165550 2.848827 0.792960 6.202852 2.475147 14.541686 14.071461 4.600300 0.000000 -78.855900
2.795935 16.876553 0.157241 -171.308592 -35.028897 -156.253929 -12.248777 0.857286 -5.495271 -1.486813 43.913054 -21.632174 -3.693683 -0.047110 0.125963 2.978181 23.584107 13.455792 8.406201 0.000000 -61.282000 7.744455 0.471411 8.889573 -7.337475 25.100874 -48.123783 2.841379 0.785233 6.301673 2.468920 14.490361 13.973070 4.560800 0.000001 -78.834700
2.794459 16.880566 0.139709 -171.355594 -35.030614 -156.296338 -12.274510 0.857755 -5.439992 -1.307868 43.691244 -21.480398 -3.646542 -0.042913 0.269321 3.011567 23.859076 13.612595 8.581200 -0.000000 -61.275200 7.728003 0.450115 8.897633 -7.308102 25.174669 -48.013990 2.833559 0.781050 6.366514 2.458020 14.395793 13.884125 4.506200 -0.000000 -78.799101
2.792669 16.886246 0.122670 -171.422504 -35.071916 -156.352602 -12.302696 0.862224 -5.379261 -1.135352 43.452134 -21.335659 -3.596762 -0.036252 0.430829 3.046476 24.141457 13.792707 8.769700 -0.000000 -61.275200 7.713196 0.427963 8.899649 -7.287987 25.234367 -47.844433 2.824456 0.780413 6.400537 2.442385 14.256103 13.800620 4.435301 -0.000000 -78.749300
2.790733 16.893374 0.105768 -171.515233 -35.146743 -156.420397 -12.333036 0.874105 -5.312100 -0.977334 43.204260 -21.200255 -3.545958 -0.027332 0.606011 3.081421 24.422102 13.997057 8.968200 0.000000 -61.280700 7.700365 0.404263 8.900395 -7.285190 25.284435 -47.624544 2.813113 0.782922 6.411200 2.422225 14.071993 13.717432 4.347300 -0.000001 -78.686500
2.788559 16.901721 0.088770 -171.631972 -35.254783 -156.492980 -12.363814 0.891916 -5.240436 -0.836831 42.944297 -21.069246 -3.493964 -0.017692 0.783671 3.116271 24.703867 14.228019 9.179400 -0.000000 -61.285600 7.690542 0.378290 8.900895 -7.308037 25.329158 -47.365059 2.797140 0.787571 6.403164 2.396831 13.841950 13.629881 4.241800 0.000000 -78.612600
2.786515 16.910967 0.071367 -171.778697 -35.393270 -156.566537 -12.392959 0.915395 -5.166827 -0.719223 42.694374 -20.959477 -3.446164 -0.005392 0.985033 3.147338 24.958236 14.474770 9.386100 0.000001 -61.308300 7.683502 0.348888 8.904365 -7.355529 25.368886 -47.079335 2.775800 0.792930 6.392053 2.366827 13.572057 13.530114 4.120001 0.000000 -78.526300
2.784582 16.920919 0.053587 -171.952213 -35.559038 -156.640539 -12.421328 0.944788 -5.088251 -0.618611 42.428115 -20.846177 -3.396732 0.006335 1.184232 3.178138 25.216683 14.743840 9.605800 0.000000 -61.325500 7.679752 0.315886 8.911363 -7.434576 25.410422 -46.771990 2.747413 0.798153 6.380737 2.331452 13.260850 13.416277 3.981700 -0.000000 -78.431400
2.782977 16.931352 0.035383 -172.152412 -35.749787 -156.715781 -12.447790 0.978397 -5.007136 -0.532505 42.160684 -20.738017 -3.348966 0.019034 1.398611 3.206314 25.459803 15.023806 9.824900 -0.000000 -61.339200 7.678396 0.278563 8.923245 -7.541199 25.456383 -46.450098 2.711764 0.802047 6.380219 2.290878 12.911928 13.284471 3.828100 -0.000000 -78.327400
2.781742 16.942056 0.016914 -172.376220 -35.965190 -156.791844 -12.472642 1.015214 -4.920018 -0.454590 41.866097 -20.619509 -3.297590 0.030529 1.614853 3.235485 25.717122 15.316376 10.058500 0.000000 -61.354800 7.679904 0.237371 8.938373 -7.671660 25.505429 -46.118298 2.668533 0.803425 6.398761 2.245250 12.531487 13.131586 3.661900 -0.000001 -78.216700
2.780921 16.952869 -0.001551 -172.616949 -36.204118 -156.874517 -12.494821 1.052103 -4.831600 -0.378333 41.568696 -20.503533 -3.247354 0.043430 1.857995 3.262259 25.958014 15.603194 10.284700 0.000000 -61.348401 7.682520 0.192150 8.956844 -7.817014 25.561558 -45.778401 2.618734 0.801755 6.441232 2.194623 12.121137 12.958149 3.484100 0.000000 -78.098300
2.780518 16.963704 -0.019794 -172.872180 -36.467749 -156.963152 -12.514576 1.088011 -4.737921 -0.297454 41.237309 -20.373519 -3.191797 0.055201 2.110188 3.291337 26.220252 15.889279 10.524000 0.000000 -61.340200 7.687356 0.144353 8.974902 -7.969359 25.618411 -45.432168 2.562869 0.796113 6.513956 2.139652 11.691114 12.762918 3.299100 0.000000 -77.974900
2.780315 16.974386 -0.037473 -173.132970 -36.757119 -157.061845 -12.531697 1.120673 -4.640752 -0.206818 40.878918 -20.234797 -3.132078 0.066657 2.380481 3.322012 26.495031 16.163994 10.768400 -0.000000 -61.317500 7.693615 0.094677 8.990478 -8.117142 25.673094 -45.078886 2.502791 0.786396 6.619106 2.081045 11.248166 12.547114 3.109900 -0.000000 -77.847300
2.780198 16.984863 -0.054270 -173.394095 -37.073821 -157.173757 -12.545942 1.148737 -4.540683 -0.103342 40.493030 -20.088684 -3.067804 0.077808 2.669672 3.354765 26.784099 16.422570 11.016800 -0.000000 -61.285200 7.701376 0.044404 9.000795 -8.249573 25.719525 -44.717644 2.440321 0.772551 6.758448 2.019811 10.801394 12.311704 2.920200 -0.000000 -77.717500
2.779891 16.995077 -0.069914 -173.652324 -37.418975 -157.297531 -12.558090 1.172531 -4.433970 0.014919 40.051098 -19.918263 -2.993040 0.085701 2.951059 3.393901 27.123072 16.672376 11.291400 -0.000000 -61.249500 7.712323 -0.004465 9.000959 -8.357892 25.745922 -44.344789 2.377107 0.754612 6.931319 1.957418 10.364564 12.057703 2.735301 -0.000000 -77.589199
2.779205 17.004731 -0.084210 -173.895984 -37.794027 -157.443234 -12.566328 1.188671 -4.333392 0.144694 39.646328 -19.784792 -2.926191 0.098612 3.297090 3.426844 27.400790 16.873678 11.517100 -0.000000 -61.177000 7.722263 -0.053549 8.995917 -8.428324 25.754728 -43.965197 2.316628 0.733781 7.138495 1.894802 9.936857 11.786196 2.554800 -0.000000 -77.458700
2.777974 17.013927 -0.096934 -174.131285 -38.199873 -157.603653 -12.573032 1.200744 -4.228333 0.286175 39.202788 -19.636273 -2.851505 0.108588 3.632418 3.464688 27.714549 17.061160 11.759300 -0.000000 -61.123700 7.735696 -0.099595 8.977619 -8.458987 25.727029 -43.570365 2.259458 0.709978 7.375487 1.833823 9.537420 11.497934 2.385599 0.000000 -77.334000
2.775972 17.022512 -0.107945 -174.353101 -38.637358 -157.783194 -12.578248 1.208439 -4.124471 0.435233 38.766255 -19.499238 -2.777869 0.118947 3.982926 3.501140 28.009836 17.215515 11.980800 -0.000000 -61.046300 7.750847 -0.143468 8.948427 -8.443989 25.659720 -43.160712 2.207823 0.684269 7.638981 1.775515 9.168767 11.194248 2.228200 0.000000 -77.214400
2.773085 17.030414 -0.117162 -174.562850 -39.107114 -157.981106 -12.582948 1.213228 -4.021611 0.587817 38.341867 -19.373085 -2.705876 0.129079 4.338626 3.535781 28.284711 17.338724 12.180500 0.000000 -60.955900 7.767991 -0.185210 8.908241 -8.382648 25.545915 -42.734613 2.162682 0.657236 7.926009 1.720893 8.836540 10.875064 2.084300 -0.000000 -77.101200
2.769228 17.037504 -0.124542 -174.760590 -39.609237 -158.198483 -12.587963 1.215905 -3.922576 0.741130 37.954487 -19.267118 -2.639990 0.140152 4.704711 3.565167 28.511148 17.423239 12.339400 -0.000000 -60.834501 7.786163 -0.225710 8.859011 -8.276010 25.384129 -42.291365 2.124880 0.629810 8.230759 1.670335 8.539924 10.541890 1.953200 0.000000 -76.994301
2.764560 17.043863 -0.130141 -174.954958 -40.144265 -158.428812 -12.593990 1.219080 -3.822604 0.888910 37.578429 -19.163857 -2.575007 0.148861 5.047940 3.593187 28.726498 17.487874 12.485400 0.000000 -60.753000 7.807241 -0.264735 8.799903 -8.130874 25.167531 -41.831677 2.093561 0.601946 8.551630 1.624304 8.282931 10.193980 1.836000 -0.000000 -76.895100
2.759036 17.049409 -0.133939 -175.146140 -40.712664 -158.671298 -12.601579 1.223707 -3.722852 1.028594 37.224741 -19.064627 -2.512976 0.155320 5.365322 3.618036 28.917490 17.529324 12.609600 -0.000000 -60.681499 7.830781 -0.303298 8.732818 -7.953710 24.897994 -41.355706 2.068324 0.574233 8.883146 1.582379 8.060582 9.832814 1.730800 0.000000 -76.802800
2.752799 17.054194 -0.135885 -175.334201 -41.313988 -158.926449 -12.611004 1.229963 -3.624899 1.160729 36.902441 -18.969137 -2.455458 0.159814 5.654583 3.638175 29.072160 17.544181 12.703700 0.000000 -60.604900 7.855890 -0.342203 8.659647 -7.751374 24.583301 -40.862031 2.048408 0.547359 9.217036 1.543322 7.861848 9.462017 1.634000 0.000000 -76.714499
2.745869 17.058146 -0.136021 -175.517356 -41.947837 -159.193037 -12.621738 1.237529 -3.531332 1.281887 36.632572 -18.891684 -2.406596 0.163821 5.928842 3.650657 29.165852 17.525314 12.750200 -0.000000 -60.512700 7.881648 -0.382732 8.583879 -7.530474 24.229286 -40.357378 2.032891 0.521595 9.552312 1.506163 7.678057 9.082566 1.543000 -0.000000 -76.630200
2.738582 17.061313 -0.134403 -175.697969 -42.612566 -159.469116 -12.633093 1.246288 -3.444574 1.393132 36.423369 -18.832614 -2.368209 0.167935 6.190557 3.653700 29.184508 17.465340 12.738100 -0.000000 -60.337300 7.907841 -0.425301 8.507104 -7.297952 23.845294 -39.841958 2.020403 0.497201 9.883297 1.469466 7.498327 8.698180 1.454599 0.000000 -76.549700
2.731057 17.063915 -0.130903 -175.877209 -43.307921 -159.749102 -12.645375 1.257016 -3.355574 1.495086 36.213032 -18.759386 -2.328426 0.167060 6.392784 3.656494 29.207006 17.397859 12.726100 0.000000 -60.239900 7.936056 -0.468581 8.426923 -7.063631 23.435491 -39.315690 2.009081 0.474087 10.203455 1.431909 7.315089 8.313358 1.367400 0.000000 -76.470200
2.723523 17.065985 -0.125481 -176.053414 -44.030775 -160.033921 -12.657406 1.268944 -3.269213 1.588185 36.023010 -18.682214 -2.291834 0.163413 6.554399 3.655420 29.202084 17.308476 12.690400 -0.000000 -60.135900 7.965799 -0.512832 8.345085 -6.831949 23.008922 -38.780116 1.998006 0.452303 10.510571 1.392367 7.119908 7.930996 1.279300 -0.000000 -76.392400
